<mxfile host="Electron" agent="Mozilla/5.0 (Macintosh; Intel Mac OS X 10_15_7) AppleWebKit/537.36 (KHTML, like Gecko) draw.io/27.0.9 Chrome/134.0.6998.205 Electron/35.4.0 Safari/537.36" version="27.0.9">
  <diagram name="Page-1" id="4PZvlNSEpbyXNzpXgD6Q">
    <mxGraphModel dx="1426" dy="774" grid="1" gridSize="10" guides="1" tooltips="1" connect="1" arrows="1" fold="1" page="1" pageScale="1" pageWidth="1169" pageHeight="827" math="0" shadow="0">
      <root>
        <mxCell id="0" />
        <mxCell id="1" parent="0" />
        <mxCell id="N1WRJXYzyuhC_pH-FBsJ-2" value="k" style="text;html=1;align=center;verticalAlign=middle;resizable=0;points=[];autosize=1;strokeColor=none;fillColor=none;" vertex="1" parent="1">
          <mxGeometry x="550" y="425" width="30" height="30" as="geometry" />
        </mxCell>
        <mxCell id="N1WRJXYzyuhC_pH-FBsJ-4" value="数学解法核心思路：&lt;div&gt;&lt;br&gt;&lt;div&gt;1. 第k个人买完票是整个循环结束的锚点，循环的次数就是第k个人要买的票数&lt;/div&gt;&lt;/div&gt;" style="text;html=1;align=left;verticalAlign=middle;resizable=0;points=[];autosize=1;strokeColor=none;fillColor=none;" vertex="1" parent="1">
          <mxGeometry x="350" y="240" width="430" height="60" as="geometry" />
        </mxCell>
        <mxCell id="N1WRJXYzyuhC_pH-FBsJ-8" value="tickets[i] &amp;lt;= tickets[k]&lt;br&gt;循环结束时剩余 0 张票" style="text;html=1;align=center;verticalAlign=middle;resizable=0;points=[];autosize=1;strokeColor=none;fillColor=none;" vertex="1" parent="1">
          <mxGeometry x="275" y="450" width="140" height="40" as="geometry" />
        </mxCell>
        <mxCell id="N1WRJXYzyuhC_pH-FBsJ-9" value="tickets[i] &amp;gt; tickets[k]&lt;br&gt;循环结束时剩余 tickets[i]-tickets[k] 张票" style="text;html=1;align=center;verticalAlign=middle;resizable=0;points=[];autosize=1;strokeColor=none;fillColor=none;" vertex="1" parent="1">
          <mxGeometry x="230" y="390" width="230" height="40" as="geometry" />
        </mxCell>
        <mxCell id="N1WRJXYzyuhC_pH-FBsJ-10" value="tickets[i] &amp;lt; tickets[k]-1&lt;br&gt;循环结束时剩余 0 张票" style="text;html=1;align=center;verticalAlign=middle;resizable=0;points=[];autosize=1;strokeColor=none;fillColor=none;" vertex="1" parent="1">
          <mxGeometry x="710" y="450" width="140" height="40" as="geometry" />
        </mxCell>
        <mxCell id="N1WRJXYzyuhC_pH-FBsJ-11" value="tickets[i] &amp;gt;= tickets[k]-1&lt;br&gt;循环结束时剩余 tickets[i]-tickets[k]-1" style="text;html=1;align=center;verticalAlign=middle;resizable=0;points=[];autosize=1;strokeColor=none;fillColor=none;" vertex="1" parent="1">
          <mxGeometry x="670" y="390" width="220" height="40" as="geometry" />
        </mxCell>
        <mxCell id="N1WRJXYzyuhC_pH-FBsJ-12" style="edgeStyle=orthogonalEdgeStyle;rounded=0;orthogonalLoop=1;jettySize=auto;html=1;entryX=1.004;entryY=0.5;entryDx=0;entryDy=0;entryPerimeter=0;" edge="1" parent="1" source="N1WRJXYzyuhC_pH-FBsJ-2" target="N1WRJXYzyuhC_pH-FBsJ-9">
          <mxGeometry relative="1" as="geometry">
            <Array as="points">
              <mxPoint x="490" y="440" />
              <mxPoint x="490" y="410" />
            </Array>
          </mxGeometry>
        </mxCell>
        <mxCell id="N1WRJXYzyuhC_pH-FBsJ-13" style="edgeStyle=orthogonalEdgeStyle;rounded=0;orthogonalLoop=1;jettySize=auto;html=1;entryX=1;entryY=0.55;entryDx=0;entryDy=0;entryPerimeter=0;" edge="1" parent="1" source="N1WRJXYzyuhC_pH-FBsJ-2" target="N1WRJXYzyuhC_pH-FBsJ-8">
          <mxGeometry relative="1" as="geometry">
            <Array as="points">
              <mxPoint x="490" y="440" />
              <mxPoint x="490" y="472" />
            </Array>
          </mxGeometry>
        </mxCell>
        <mxCell id="N1WRJXYzyuhC_pH-FBsJ-16" value="ahead" style="edgeLabel;html=1;align=center;verticalAlign=middle;resizable=0;points=[];" vertex="1" connectable="0" parent="N1WRJXYzyuhC_pH-FBsJ-13">
          <mxGeometry x="-0.8367" relative="1" as="geometry">
            <mxPoint x="-15" as="offset" />
          </mxGeometry>
        </mxCell>
        <mxCell id="N1WRJXYzyuhC_pH-FBsJ-14" style="edgeStyle=orthogonalEdgeStyle;rounded=0;orthogonalLoop=1;jettySize=auto;html=1;entryX=-0.018;entryY=0.55;entryDx=0;entryDy=0;entryPerimeter=0;" edge="1" parent="1" source="N1WRJXYzyuhC_pH-FBsJ-2" target="N1WRJXYzyuhC_pH-FBsJ-11">
          <mxGeometry relative="1" as="geometry">
            <Array as="points">
              <mxPoint x="640" y="440" />
              <mxPoint x="640" y="412" />
            </Array>
          </mxGeometry>
        </mxCell>
        <mxCell id="N1WRJXYzyuhC_pH-FBsJ-15" style="edgeStyle=orthogonalEdgeStyle;rounded=0;orthogonalLoop=1;jettySize=auto;html=1;entryX=-0.007;entryY=0.5;entryDx=0;entryDy=0;entryPerimeter=0;" edge="1" parent="1" source="N1WRJXYzyuhC_pH-FBsJ-2" target="N1WRJXYzyuhC_pH-FBsJ-10">
          <mxGeometry relative="1" as="geometry">
            <Array as="points">
              <mxPoint x="640" y="440" />
              <mxPoint x="640" y="470" />
            </Array>
          </mxGeometry>
        </mxCell>
        <mxCell id="N1WRJXYzyuhC_pH-FBsJ-17" value="Text" style="edgeLabel;html=1;align=center;verticalAlign=middle;resizable=0;points=[];" vertex="1" connectable="0" parent="N1WRJXYzyuhC_pH-FBsJ-15">
          <mxGeometry x="-0.7107" y="-4" relative="1" as="geometry">
            <mxPoint y="-4" as="offset" />
          </mxGeometry>
        </mxCell>
        <mxCell id="N1WRJXYzyuhC_pH-FBsJ-18" value="behind" style="edgeLabel;html=1;align=center;verticalAlign=middle;resizable=0;points=[];" vertex="1" connectable="0" parent="N1WRJXYzyuhC_pH-FBsJ-15">
          <mxGeometry x="-0.7107" y="2" relative="1" as="geometry">
            <mxPoint x="7" y="2" as="offset" />
          </mxGeometry>
        </mxCell>
        <mxCell id="N1WRJXYzyuhC_pH-FBsJ-19" value="min(tickets[i], tickets[k])" style="text;html=1;align=center;verticalAlign=middle;resizable=0;points=[];autosize=1;strokeColor=none;fillColor=none;" vertex="1" parent="1">
          <mxGeometry x="55" y="456" width="150" height="30" as="geometry" />
        </mxCell>
        <mxCell id="N1WRJXYzyuhC_pH-FBsJ-20" style="edgeStyle=orthogonalEdgeStyle;rounded=0;orthogonalLoop=1;jettySize=auto;html=1;entryX=1;entryY=0.467;entryDx=0;entryDy=0;entryPerimeter=0;" edge="1" parent="1" source="N1WRJXYzyuhC_pH-FBsJ-8" target="N1WRJXYzyuhC_pH-FBsJ-19">
          <mxGeometry relative="1" as="geometry" />
        </mxCell>
        <mxCell id="N1WRJXYzyuhC_pH-FBsJ-21" value="min(tickets[i], tickets[k]-1)" style="text;html=1;align=center;verticalAlign=middle;resizable=0;points=[];autosize=1;strokeColor=none;fillColor=none;" vertex="1" parent="1">
          <mxGeometry x="935" y="395" width="160" height="30" as="geometry" />
        </mxCell>
        <mxCell id="N1WRJXYzyuhC_pH-FBsJ-22" style="edgeStyle=orthogonalEdgeStyle;rounded=0;orthogonalLoop=1;jettySize=auto;html=1;entryX=0;entryY=0.5;entryDx=0;entryDy=0;entryPerimeter=0;" edge="1" parent="1" source="N1WRJXYzyuhC_pH-FBsJ-11" target="N1WRJXYzyuhC_pH-FBsJ-21">
          <mxGeometry relative="1" as="geometry" />
        </mxCell>
      </root>
    </mxGraphModel>
  </diagram>
</mxfile>
